<svg width="24" height="24" viewBox="0 0 24 24" fill="none" xmlns="http://www.w3.org/2000/svg">
<path fill-rule="evenodd" clip-rule="evenodd" d="M6.18113 6.65259C6.04948 6.40481 5.96432 6.13674 5.93347 5.86528C5.88046 5.39881 5.98594 4.90386 6.30897 4.48813C6.63163 4.07288 7.12859 3.79085 7.76197 3.66419C9.0704 3.40253 10.1572 3.97899 10.9474 4.70257C11.3609 5.0813 11.713 5.51661 12 5.93658C12.2871 5.51661 12.6391 5.0813 13.0527 4.70257C13.8428 3.97899 14.9296 3.40253 16.2381 3.66419C16.8714 3.79085 17.3684 4.07288 17.6911 4.48813C18.0141 4.90386 18.1196 5.39881 18.0666 5.86528C18.0357 6.13674 17.9505 6.40481 17.8189 6.65259H18.6C19.2628 6.65259 19.8 7.18984 19.8 7.85259V10.2526H12.6V6.6H11.4V10.2526H4.20001V7.85259C4.20001 7.18984 4.73727 6.65259 5.40001 6.65259H6.18113ZM7.94607 6.65259H11.0357C10.7868 6.28337 10.4844 5.90578 10.1369 5.58754C9.50203 5.00613 8.78886 4.68259 7.99729 4.84089C7.58068 4.9242 7.36513 5.08467 7.25654 5.22442C7.14832 5.36369 7.1038 5.53625 7.12579 5.72979C7.17129 6.13015 7.49253 6.53773 7.94607 6.65259ZM16.054 6.65259C16.5075 6.53773 16.8287 6.13015 16.8742 5.72979C16.8962 5.53625 16.8517 5.36369 16.7435 5.22442C16.6349 5.08467 16.4193 4.9242 16.0027 4.84089C15.2112 4.68259 14.498 5.00613 13.8631 5.58754C13.5156 5.90578 13.2133 6.28337 12.9643 6.65259H16.054Z" fill="black"/>
<path d="M11.4 11.4H4.80001V17.4C4.80001 18.7255 5.87453 19.8 7.20001 19.8H11.4L11.4 11.4Z" fill="black"/>
<path fill-rule="evenodd" clip-rule="evenodd" d="M12.6 16.8C12.6 19.1196 14.4804 21 16.8 21C19.1196 21 21 19.1196 21 16.8C21 14.4804 19.1196 12.6 16.8 12.6C14.4804 12.6 12.6 14.4804 12.6 16.8ZM14.92 18.668C14.92 18.7107 14.9414 18.7507 14.984 18.788C15.2294 18.9854 15.4907 19.14 15.768 19.252C16.0934 19.3854 16.456 19.452 16.856 19.452C17.176 19.452 17.4507 19.412 17.68 19.332C17.9094 19.2467 18.0987 19.1374 18.248 19.004C18.3974 18.8654 18.5067 18.708 18.576 18.532C18.6454 18.3507 18.68 18.164 18.68 17.972C18.68 17.7214 18.6267 17.5054 18.52 17.324C18.4134 17.1427 18.2747 16.988 18.104 16.86C17.9387 16.732 17.7547 16.6227 17.552 16.532C17.3494 16.436 17.1494 16.3507 16.952 16.276L16.848 16.236L16.528 16.108C16.4214 16.06 16.3254 16.0094 16.24 15.956C16.16 15.8974 16.0934 15.8334 16.04 15.764C15.9867 15.6894 15.96 15.6067 15.96 15.516C15.96 15.452 15.976 15.3907 16.008 15.332C16.0454 15.2734 16.096 15.22 16.16 15.172C16.2294 15.124 16.312 15.0894 16.408 15.068C16.5094 15.0414 16.616 15.028 16.728 15.028H16.8C16.9067 15.028 17.0187 15.0414 17.136 15.068C17.2534 15.0894 17.3654 15.1187 17.472 15.156C17.5787 15.188 17.6774 15.2254 17.768 15.268C17.8054 15.284 17.8374 15.3 17.864 15.316C17.896 15.332 17.9254 15.34 17.952 15.34C17.9947 15.34 18.032 15.3187 18.064 15.276L18.4 14.812C18.4214 14.78 18.432 14.748 18.432 14.716C18.432 14.7107 18.4294 14.6974 18.424 14.676C18.424 14.6547 18.4054 14.6307 18.368 14.604C18.3254 14.572 18.2747 14.54 18.216 14.508C18.1094 14.444 17.984 14.3854 17.84 14.332C17.7014 14.2787 17.544 14.236 17.368 14.204C17.192 14.1667 17.0027 14.148 16.8 14.148C16.512 14.148 16.2587 14.1907 16.04 14.276C15.8267 14.356 15.648 14.4627 15.504 14.596C15.36 14.724 15.2507 14.8707 15.176 15.036C15.1067 15.2014 15.072 15.3694 15.072 15.54C15.072 15.7694 15.1147 15.9694 15.2 16.14C15.2854 16.3054 15.4 16.4494 15.544 16.572C15.6934 16.6894 15.864 16.7907 16.056 16.876C16.248 16.9614 16.448 17.0414 16.656 17.116C16.736 17.148 16.84 17.188 16.968 17.236C17.096 17.284 17.2187 17.3454 17.336 17.42C17.4587 17.4894 17.5627 17.5694 17.648 17.66C17.7387 17.7507 17.784 17.8547 17.784 17.972C17.784 18.068 17.7574 18.1534 17.704 18.228C17.6507 18.2974 17.5787 18.3587 17.488 18.412C17.3974 18.46 17.2907 18.4974 17.168 18.524C17.0507 18.5507 16.9254 18.564 16.792 18.564H16.744C16.4987 18.564 16.272 18.5214 16.064 18.436C15.8827 18.3614 15.688 18.2467 15.48 18.092C15.448 18.0654 15.4187 18.052 15.392 18.052C15.3547 18.052 15.32 18.076 15.288 18.124L14.952 18.572C14.9307 18.604 14.92 18.636 14.92 18.668Z" fill="black"/>
<path d="M12.6 13.4056L12.6 11.4H16.8C15.1037 11.4 13.59 12.1822 12.6 13.4056Z" fill="black"/>
<path d="M16.8 11.4H19.2V11.9613C18.477 11.602 17.6621 11.4 16.8 11.4Z" fill="black"/>
</svg>
