<svg width="24" height="24" viewBox="0 0 24 24" fill="none" xmlns="http://www.w3.org/2000/svg">
<path d="M18.4902 12.9626L20.8095 15.3429C20.9281 15.2093 21 15.0338 21 14.8417C21 14.0792 20.5482 13.3882 19.8472 13.0785L17.0976 11.6228C16.9139 11.5417 16.7955 11.3606 16.7955 11.1607C16.7955 11 16.872 10.855 16.9905 10.7606C17.7198 10.1798 18.1859 9.28803 18.1859 8.28788V7.36666C18.1859 5.61776 16.7596 4.2 15.0001 4.2C13.8421 4.2 12.8284 4.81408 12.2707 5.73249C14.0817 6.44104 15.3638 8.2045 15.3638 10.2667V11.3333C15.3638 12.5484 14.9182 13.6599 14.1828 14.5123L14.9622 14.9277L16.7477 12.9874C16.9709 12.7449 17.2841 12.6048 17.6136 12.6001C17.9432 12.5954 18.2602 12.7265 18.4902 12.9626Z" fill="black"/>
<path d="M13.9165 17.1242C13.727 16.6924 13.8082 16.1902 14.1227 15.8401L12.9123 15.1949C12.701 15.1009 12.5649 14.8912 12.5649 14.6598C12.5649 14.4737 12.6529 14.3057 12.7892 14.1965C13.6278 13.5239 14.1639 12.4914 14.1639 11.3333V10.2667C14.1639 8.24162 12.5236 6.6 10.5001 6.6C8.47672 6.6 6.83642 8.24162 6.83642 10.2667V11.3333C6.83642 12.4911 7.37219 13.5234 8.21043 14.1959C8.34677 14.3053 8.43481 14.4734 8.43481 14.6596C8.43481 14.8912 8.29852 15.1011 8.08705 15.1952L4.92572 16.8803C4.11955 17.2389 3.60001 18.039 3.60001 18.9219C3.60001 19.4069 3.99281 19.8 4.47735 19.8H13.1999C13.1996 19.3236 13.4843 18.8821 13.9371 18.6929L13.9403 18.6914C13.9469 18.6886 13.9607 18.6823 13.9808 18.6727C14.0212 18.6534 14.0857 18.6209 14.1662 18.575C14.3296 18.4818 14.5452 18.3411 14.7563 18.1534C14.8647 18.057 14.9665 17.9535 15.0582 17.8421H15.0154C14.5391 17.8421 14.1078 17.5604 13.9165 17.1242Z" fill="black"/>
<path d="M19.9037 16.1327C20.0889 16.3228 19.9542 16.6421 19.6888 16.6421H18.7077C18.7077 19.0105 17.0154 19.8 14.4 19.8C14.4 19.8 16.7077 18.8526 16.7077 16.6421H15.6992C15.4378 16.6421 15.3015 16.3312 15.4784 16.139L17.4162 14.0331C17.5328 13.9065 17.7318 13.9036 17.8519 14.0269L19.9037 16.1327Z" fill="black"/>
</svg>
